<?xml version="1.0" standalone="no"?>
<!DOCTYPE svg PUBLIC "-//W3C//DTD SVG 20010904//EN"
 "http://www.w3.org/TR/2001/REC-SVG-20010904/DTD/svg10.dtd">
<svg version="1.0" xmlns="http://www.w3.org/2000/svg"
 width="700.000000pt" height="700.000000pt" viewBox="0 0 700.000000 700.000000"
 preserveAspectRatio="xMidYMid meet">
<metadata>
Created by potrace 1.11, written by Peter Selinger 2001-2013
</metadata>
<g transform="translate(0.000000,700.000000) scale(0.100000,-0.100000)"
fill="#000000" stroke="none">
<path d="M2375 6993 c-226 -29 -456 -143 -626 -312 -131 -130 -223 -278 -277
-446 -51 -159 -50 -139 -51 -1920 0 -913 0 -1672 -1 -1687 0 -15 -6 -33 -13
-40 -95 -100 -194 -242 -261 -375 -42 -84 -107 -260 -120 -328 -4 -16 -9 -41
-11 -55 -88 -436 25 -903 303 -1250 93 -117 232 -245 342 -316 25 -16 47 -31
50 -34 23 -24 219 -116 315 -148 177 -59 295 -77 510 -76 291 0 535 71 790
228 44 27 82 52 85 55 3 3 23 19 45 36 99 73 206 183 288 295 26 36 54 74 63
85 25 33 120 225 147 300 138 369 120 802 -48 1168 -58 128 -177 307 -265 398
l-30 32 -1 1686 c-1 927 -2 1697 -4 1711 -23 211 -82 369 -198 538 -56 81
-196 220 -278 274 -120 79 -286 148 -419 173 -41 7 -291 13 -335 8z m307 -453
c235 -59 433 -272 479 -513 5 -29 9 -765 9 -1797 0 -1530 2 -1753 15 -1791 11
-31 40 -70 93 -125 177 -182 276 -373 318 -614 10 -52 11 -267 2 -325 -41
-277 -194 -537 -418 -709 -331 -254 -766 -298 -1140 -117 -304 148 -535 445
-596 766 -2 11 -6 32 -10 47 -10 47 -12 230 -3 303 29 242 139 465 320 648 74
76 95 105 103 153 3 16 6 812 6 1769 1 1936 -4 1808 70 1961 78 161 261 313
409 341 14 2 28 6 32 9 5 3 36 7 71 11 35 3 64 6 65 7 5 4 134 -14 175 -24z"/>
<path d="M2449 6004 c-53 -16 -112 -69 -135 -122 -15 -34 -16 -212 -17 -1884
l-1 -1846 -57 -27 c-81 -37 -181 -116 -235 -183 -48 -61 -107 -175 -120 -232
-4 -19 -10 -42 -12 -50 -12 -42 -10 -212 4 -269 101 -437 591 -650 972 -424
137 81 275 258 297 382 3 14 9 41 15 60 5 19 8 82 6 140 -4 106 -8 134 -30
196 -58 161 -188 307 -336 376 l-65 31 -1 1847 c-1 1722 -2 1849 -18 1885 -45
101 -159 152 -267 120z m156 -4275 c137 -65 170 -246 64 -350 -48 -47 -101
-67 -165 -63 -61 4 -99 21 -141 63 -44 43 -66 97 -64 154 3 158 166 262 306
196z"/>
<path d="M4396 6979 c-86 -42 -129 -110 -128 -201 1 -121 86 -205 216 -213
303 -19 497 -90 695 -255 244 -203 377 -470 396 -796 7 -116 28 -169 83 -212
116 -90 267 -58 334 72 44 84 19 349 -53 569 -93 284 -257 520 -503 725 -156
130 -418 253 -631 297 -119 24 -130 26 -255 30 -99 3 -120 1 -154 -16z"/>
<path d="M4429 6227 c-167 -43 -216 -252 -87 -373 39 -37 80 -52 163 -59 164
-14 299 -151 306 -312 3 -67 24 -122 62 -161 43 -46 80 -63 144 -69 102 -10
210 72 229 175 8 44 -2 159 -21 233 -83 318 -380 560 -702 572 -34 1 -76 -1
-94 -6z"/>
<path d="M4198 5456 c-93 -34 -143 -101 -147 -194 -3 -100 42 -174 131 -212
172 -74 349 91 288 269 -29 88 -95 139 -188 147 -26 2 -64 -2 -84 -10z"/>
</g>
</svg>
